<!DOCTYPE svg PUBLIC "-//W3C//DTD SVG 20010904//EN" "http://www.w3.org/TR/2001/REC-SVG-20010904/DTD/svg10.dtd">
<svg version="1.0" xmlns="http://www.w3.org/2000/svg" width="1600px" height="340px" viewBox="0 0 16000 3400" preserveAspectRatio="xMidYMid meet">
<g id="layer101" fill="#007bff" stroke="none">
 <path d="M0 1700 l0 -1700 8000 0 8000 0 0 1700 0 1700 -8000 0 -8000 0 0 -1700z"/>
 </g>
<g id="layer102" fill="#ffffff" stroke="none">
 <path d="M0 1700 l0 -1700 8000 0 8000 0 0 1700 0 1700 -8000 0 -8000 0 0 -1700z m12992 1043 c26 -24 39 -31 35 -20 -7 18 -6 18 17 0 13 -10 47 -38 75 -61 35 -30 51 -39 51 -28 0 9 4 16 9 16 5 0 13 9 16 20 4 12 15 20 28 20 12 0 30 7 40 14 19 14 24 31 6 20 -7 -4 -10 -1 -7 7 7 20 34 23 70 8 53 -22 55 -89 3 -89 -17 0 -25 -6 -25 -18 0 -16 13 -18 168 -18 187 1 234 -9 320 -68 52 -37 48 -34 82 -43 13 -4 74 -24 135 -46 136 -48 173 -55 181 -33 10 26 23 18 29 -18 11 -54 -2 -74 -71 -117 l-65 -41 63 -46 c187 -136 290 -197 398 -234 30 -10 71 -30 90 -43 20 -14 65 -36 100 -50 35 -14 66 -29 69 -34 3 -4 68 -35 143 -68 76 -34 159 -77 186 -97 91 -66 172 -193 241 -377 69 -185 65 -220 -16 -131 l-44 47 31 -58 c49 -90 30 -91 -55 -2 -42 44 -73 72 -70 62 13 -33 -17 -17 -71 39 -30 31 -54 51 -54 44 0 -15 -32 4 -118 74 -43 34 -71 50 -86 48 -15 -2 -42 12 -77 40 -34 27 -62 41 -76 40 -15 -2 -35 11 -66 42 -25 26 -53 46 -65 46 -11 0 -31 4 -44 9 -13 5 -35 12 -50 15 -16 4 -28 13 -28 21 0 8 -9 15 -20 15 -27 0 -76 26 -83 43 -3 8 -24 17 -47 21 -30 5 -43 12 -47 26 -3 11 -13 20 -22 20 -9 1 -34 9 -56 20 -22 11 -47 19 -55 20 -9 0 -24 6 -35 14 -11 7 -37 19 -57 25 -21 7 -38 17 -38 22 0 5 -18 16 -40 25 -22 9 -40 20 -40 24 0 4 -38 27 -85 51 -47 24 -103 53 -125 64 -22 11 -48 30 -59 42 -11 12 -30 24 -41 28 -12 4 -19 13 -16 20 9 25 -53 -5 -93 -44 -20 -20 -104 -117 -187 -216 -226 -269 -307 -357 -408 -442 -50 -43 -153 -139 -228 -213 -117 -115 -142 -145 -168 -203 -38 -85 -68 -207 -76 -315 -7 -86 -17 -98 -42 -51 -27 50 6 191 79 336 20 41 31 69 24 63 -19 -15 -94 -171 -143 -295 -36 -91 -77 -215 -99 -305 l-9 -34 -18 39 c-36 75 2 200 122 410 51 87 66 124 38 95 -36 -40 -246 -410 -282 -498 l-22 -56 -7 36 c-14 72 29 171 134 309 71 94 128 189 113 189 -5 0 -51 -55 -103 -123 -149 -191 -184 -239 -217 -290 -33 -53 -46 -43 -29 22 13 51 46 98 153 218 91 101 134 158 134 176 0 22 -36 -6 -162 -128 -141 -137 -205 -191 -213 -183 -14 13 192 239 278 305 16 13 27 27 25 33 -2 7 -32 -8 -68 -34 -145 -101 -228 -156 -236 -156 -14 0 87 98 148 144 77 59 64 77 -25 36 -37 -16 -69 -30 -72 -30 -17 0 33 66 71 93 48 34 55 47 24 47 -29 0 -25 12 15 49 19 17 35 40 35 50 0 12 18 30 44 47 30 19 42 32 36 39 -13 16 13 50 48 64 21 9 28 18 25 30 -3 11 6 27 24 42 16 14 28 30 26 36 -3 7 9 19 26 28 28 14 30 18 18 36 -11 18 -8 24 21 49 17 17 32 36 32 45 0 8 13 21 30 30 20 11 27 20 23 31 -4 11 3 23 18 35 13 10 24 24 24 31 0 7 15 22 33 34 18 13 28 25 22 29 -18 11 -11 23 25 45 19 12 34 26 32 32 -1 6 12 21 30 32 17 12 34 31 38 44 3 13 19 31 35 40 18 10 30 27 32 42 2 15 15 33 35 45 20 12 32 28 33 42 0 12 13 32 29 45 16 13 34 33 40 46 6 12 20 22 31 22 11 0 24 9 30 20 6 11 17 20 24 20 7 0 21 9 31 20 10 11 24 20 31 20 7 0 10 8 7 20 -3 11 -1 20 5 20 5 0 15 14 21 30 l10 30 -47 0 c-87 -1 -466 -20 -522 -26 l-54 -7 16 24 c11 17 29 26 63 31 78 11 86 18 35 34 -49 14 -96 55 -85 73 3 6 20 11 37 11 30 0 31 1 14 19 -17 19 -17 20 3 30 27 15 61 14 61 -1 0 -9 3 -9 9 1 6 8 16 11 27 7 11 -4 -1 11 -26 33 -42 37 -44 41 -28 57 21 22 64 12 73 -17 6 -17 9 -18 16 -8 6 11 15 10 46 -4 l38 -18 -40 35 c-45 38 -43 56 4 32 36 -19 50 -21 33 -4 -7 7 -12 16 -12 20 0 12 38 10 62 -3 15 -8 22 -8 28 1 5 8 15 10 26 6 17 -6 17 -6 1 12 -9 10 -17 22 -17 25 0 11 33 8 60 -6 21 -11 28 -11 38 -1 8 9 8 15 -3 24 -8 7 -15 16 -15 21 0 20 32 7 72 -28z m-12074 -738 c79 -34 121 -102 122 -198 0 -67 -15 -102 -63 -143 -35 -32 -47 -37 -170 -80 -98 -34 -137 -69 -137 -123 0 -73 74 -123 150 -101 46 13 101 53 129 95 14 21 32 35 44 35 18 0 19 -4 13 -52 -3 -29 -6 -65 -6 -80 0 -23 -4 -28 -24 -28 -13 0 -26 5 -28 12 -3 9 -20 8 -66 -6 -79 -24 -177 -18 -221 14 -79 56 -91 181 -24 260 28 34 81 63 190 104 40 15 86 40 102 55 84 78 22 211 -99 211 -71 0 -139 -51 -176 -132 -13 -29 -23 -38 -42 -38 -22 0 -24 3 -18 31 3 17 6 60 6 95 0 60 1 64 23 64 13 0 27 -4 33 -10 6 -6 31 -2 69 10 74 23 144 25 193 5z m4527 -2 c33 -9 76 -16 96 -15 l36 1 -5 -49 c-7 -76 4 -119 33 -126 14 -3 25 -12 25 -20 0 -11 -24 -14 -120 -14 -93 0 -120 3 -120 13 0 8 17 18 38 23 34 8 37 12 40 48 5 59 -5 84 -40 102 -39 20 -110 14 -139 -12 -79 -71 -92 -301 -23 -383 64 -77 173 -52 225 52 19 36 50 50 64 27 4 -6 1 -44 -6 -85 -10 -61 -15 -75 -30 -75 -10 0 -22 7 -26 15 -7 12 -14 12 -48 0 -22 -8 -62 -14 -89 -15 -103 0 -171 40 -221 131 -25 47 -29 64 -29 135 0 96 26 158 85 206 72 58 150 71 254 41z m1580 -12 c26 -11 67 -21 91 -21 l44 0 0 -100 0 -101 30 -17 c60 -34 39 -42 -105 -42 -109 0 -135 3 -135 14 0 8 15 17 35 20 21 4 39 16 46 28 15 28 5 122 -15 154 -40 60 -147 76 -214 32 -74 -49 -108 -163 -99 -333 6 -122 19 -165 60 -212 55 -63 122 -75 198 -37 35 17 98 89 115 130 11 26 20 34 39 34 30 0 30 -5 13 -131 -10 -77 -14 -89 -31 -89 -11 0 -21 9 -24 21 -7 23 -28 22 -98 -5 -49 -19 -147 -20 -198 -2 -133 48 -226 210 -214 376 10 154 93 269 215 300 61 15 192 5 247 -19z m1198 18 c93 -26 160 -132 160 -254 0 -193 -144 -304 -328 -254 -52 14 -117 82 -139 145 -21 61 -21 157 1 219 19 58 83 126 133 142 46 14 125 16 173 2z m628 -17 c65 -40 73 -67 79 -255 5 -152 7 -170 24 -183 11 -8 28 -14 38 -14 11 0 18 -7 18 -20 0 -19 -7 -20 -110 -20 -103 0 -110 1 -110 20 0 15 7 20 25 20 14 0 34 9 46 21 20 20 21 29 17 172 -4 169 -14 204 -68 232 -50 26 -97 20 -136 -19 l-34 -34 0 -174 c0 -188 3 -198 52 -198 21 0 28 -5 28 -20 0 -19 -7 -20 -135 -20 -128 0 -135 1 -135 20 0 15 7 20 28 20 55 0 57 4 62 199 l5 179 31 38 c16 21 46 43 65 51 51 19 168 11 210 -15z m2854 -1 c63 -28 140 -108 124 -127 -18 -22 -28 -17 -81 32 -59 55 -102 74 -168 74 -128 0 -204 -91 -217 -259 -10 -133 30 -270 93 -320 53 -42 130 -48 195 -15 31 15 105 95 121 129 8 18 19 25 40 25 23 0 28 -4 24 -17 -3 -10 -10 -47 -16 -83 -17 -103 -19 -110 -38 -110 -10 0 -25 9 -34 19 -17 20 -17 20 -72 0 -61 -21 -159 -25 -218 -9 -101 28 -194 133 -224 250 -48 188 46 369 219 426 62 20 190 13 252 -15z m-10185 -6 c0 -9 -10 -15 -26 -15 -14 0 -34 -5 -45 -10 -18 -10 -19 -23 -19 -196 0 -109 4 -193 10 -205 22 -40 85 -8 120 62 16 30 26 39 46 39 24 0 26 -3 21 -32 -3 -18 -9 -54 -13 -80 l-6 -48 -228 0 -228 0 -6 28 c-3 15 -8 51 -11 80 -7 50 -6 52 18 52 18 0 28 -8 37 -30 16 -38 74 -90 101 -90 32 0 39 40 39 225 0 191 -4 205 -61 205 -19 0 -29 5 -29 15 0 13 22 15 140 15 118 0 140 -2 140 -15z m350 1 c0 -7 -13 -16 -30 -19 -25 -5 -30 -11 -30 -35 0 -16 5 -43 11 -61 l11 -32 86 3 85 3 16 43 c18 49 9 75 -28 80 -11 2 -21 10 -21 18 0 11 23 14 125 14 104 0 125 -2 125 -15 0 -8 -8 -15 -18 -15 -34 0 -57 -40 -142 -258 -84 -213 -86 -217 -116 -220 l-31 -3 -73 193 c-88 233 -104 266 -135 280 -14 6 -25 17 -25 25 0 10 22 13 95 13 74 0 95 -3 95 -14z m780 -1 c0 -10 -10 -15 -29 -15 -57 0 -61 -14 -61 -205 0 -185 7 -225 39 -225 27 0 85 52 101 90 9 22 19 30 37 30 27 0 27 -6 6 -127 l-5 -33 -228 0 -228 0 -6 48 c-4 26 -10 62 -13 80 -5 29 -3 32 21 32 20 0 30 -9 46 -39 21 -43 64 -81 89 -81 37 0 41 19 41 211 0 207 -3 219 -61 219 -19 0 -29 5 -29 15 0 13 22 15 140 15 118 0 140 -2 140 -15z m649 -37 c6 -29 14 -63 17 -75 5 -19 2 -23 -17 -23 -16 0 -38 16 -67 50 -44 51 -84 70 -149 70 -53 0 -63 -20 -63 -121 0 -96 2 -99 53 -80 16 6 29 23 37 45 9 28 17 36 36 36 24 0 24 -1 24 -105 l0 -105 -25 0 c-20 0 -27 6 -31 30 -8 36 -21 48 -62 56 l-32 7 0 -75 c0 -106 13 -121 96 -116 67 4 106 28 125 76 6 15 17 22 35 22 25 0 26 -1 19 -52 -12 -97 12 -89 -238 -86 -202 3 -222 5 -225 21 -3 13 3 17 27 17 57 0 61 12 61 215 0 202 -4 215 -61 215 -19 0 -29 5 -29 15 0 13 32 15 228 15 l229 0 12 -52z m431 37 c0 -10 -10 -15 -28 -15 -15 0 -38 -7 -50 -16 -21 -14 -22 -22 -22 -140 0 -118 1 -124 20 -124 14 0 57 47 143 155 l122 155 88 0 c67 0 87 -3 87 -14 0 -7 -14 -19 -30 -26 -18 -7 -78 -68 -145 -146 l-115 -133 38 -11 c132 -42 181 -159 106 -258 -50 -65 -92 -75 -326 -80 -206 -4 -208 -4 -208 17 0 16 6 21 26 21 14 0 34 5 45 10 18 10 19 24 19 285 0 272 0 274 -22 289 -12 9 -33 16 -45 16 -14 0 -23 6 -23 15 0 13 24 15 160 15 136 0 160 -2 160 -15z m680 0 c0 -10 -10 -15 -29 -15 -59 0 -63 -12 -59 -222 3 -205 4 -208 61 -208 20 0 27 -5 27 -20 0 -19 -7 -20 -135 -20 -128 0 -135 1 -135 20 0 15 7 20 28 20 50 0 52 9 52 217 0 180 -1 193 -19 203 -11 5 -29 10 -40 10 -12 0 -21 7 -21 15 0 13 22 15 135 15 113 0 135 -2 135 -15z m467 -7 c96 -45 133 -109 133 -230 0 -112 -54 -188 -160 -227 -21 -8 -104 -15 -202 -18 -166 -6 -168 -5 -168 16 0 16 6 21 28 21 50 0 52 9 52 217 0 180 -1 193 -19 203 -11 5 -29 10 -40 10 -12 0 -21 7 -21 15 0 13 26 15 175 15 159 0 179 -2 222 -22z m1307 -43 c21 -83 20 -85 -8 -85 -16 0 -31 12 -49 39 -31 46 -97 81 -154 81 -57 0 -66 -16 -71 -121 -4 -88 -4 -89 20 -89 34 0 65 25 73 60 5 23 12 30 31 30 24 0 24 -1 24 -105 0 -104 0 -105 -24 -105 -19 0 -26 7 -31 29 -8 36 -22 49 -65 57 l-33 7 6 -82 c3 -45 11 -88 17 -96 17 -20 103 -19 145 1 18 8 41 31 51 50 13 24 25 34 43 34 23 0 23 -1 17 -62 -4 -34 -10 -66 -12 -70 -3 -4 -104 -8 -225 -8 -212 0 -219 1 -219 20 0 15 7 20 28 20 50 0 52 9 52 217 0 180 -1 193 -19 203 -11 5 -29 10 -40 10 -12 0 -21 7 -21 15 0 13 32 15 224 15 l224 0 16 -65z m1416 50 c0 -8 -9 -15 -21 -15 -51 0 -59 -15 -59 -105 0 -118 14 -115 110 25 l75 109 73 1 c55 0 72 -3 72 -14 0 -8 -11 -17 -24 -20 -16 -4 -51 -41 -95 -98 l-71 -91 39 -17 c55 -25 81 -63 81 -120 0 -33 -6 -55 -22 -75 -37 -47 -78 -57 -260 -63 -167 -5 -168 -5 -168 17 0 16 6 21 28 21 57 0 57 2 57 215 0 213 0 215 -57 215 -18 0 -28 5 -28 15 0 13 22 15 135 15 113 0 135 -2 135 -15z m1760 0 c0 -10 -10 -15 -29 -15 -48 0 -61 -22 -61 -106 l0 -74 73 0 c127 -1 190 -46 191 -140 1 -58 -23 -96 -78 -124 -32 -15 -69 -20 -202 -24 -162 -5 -164 -5 -164 17 0 16 6 21 28 21 50 0 52 9 52 217 0 180 -1 193 -19 203 -11 5 -29 10 -40 10 -12 0 -21 7 -21 15 0 13 22 15 135 15 113 0 135 -2 135 -15z m1080 -62 c6 -43 14 -90 17 -105 5 -24 2 -28 -18 -27 -18 0 -34 16 -64 62 -48 74 -100 107 -184 114 -106 10 -101 26 -101 -297 0 -266 1 -280 19 -290 11 -5 33 -10 50 -10 24 0 31 -4 31 -20 0 -19 -7 -20 -170 -20 -163 0 -170 1 -170 20 0 17 7 20 39 20 69 0 71 7 71 302 0 245 -1 259 -20 278 -12 12 -33 20 -55 20 -24 0 -35 5 -35 15 0 13 39 15 289 15 l288 0 13 -77z m679 0 c7 -43 15 -90 18 -105 5 -25 2 -28 -21 -28 -19 0 -30 9 -42 33 -49 94 -111 137 -207 144 -107 8 -102 21 -102 -297 0 -257 1 -272 19 -286 11 -8 35 -14 53 -14 26 0 33 -4 33 -20 0 -19 -7 -20 -170 -20 -163 0 -170 1 -170 20 0 17 7 20 39 20 69 0 71 7 71 302 0 245 -1 259 -20 278 -12 12 -33 20 -55 20 -24 0 -35 5 -35 15 0 13 39 15 288 15 l289 0 12 -77z"/>
 <path d="M8100 1972 c-24 -12 -43 -33 -60 -67 -21 -43 -24 -63 -24 -150 0 -80 5 -109 21 -147 48 -106 155 -111 205 -9 31 63 33 245 3 305 -35 69 -91 96 -145 68z"/>
 <path d="M1880 1718 c16 -44 32 -83 35 -86 2 -3 9 8 16 24 40 106 49 130 49 137 0 4 -29 7 -65 7 l-65 0 30 -82z"/>
 <path d="M3630 1527 c0 -144 7 -157 81 -157 90 0 136 60 127 161 -8 79 -60 119 -158 119 l-50 0 0 -123z"/>
 <path d="M4676 1949 c-13 -20 -16 -52 -16 -194 0 -208 5 -221 82 -212 26 4 62 14 79 24 60 35 90 141 70 249 -18 94 -66 144 -149 152 -43 4 -51 1 -66 -19z"/>
 <path d="M7522 1654 c3 -110 11 -121 72 -110 52 10 76 37 76 86 0 79 -44 120 -128 120 -22 0 -23 -2 -20 -96z"/>
 <path d="M9270 1669 c0 -106 9 -129 51 -129 36 0 84 23 93 45 10 26 7 114 -4 135 -11 20 -66 40 -112 40 l-28 0 0 -91z"/>
 </g>

</svg>